<mxfile host="app.diagrams.net" modified="2023-09-19T00:44:47.321Z" agent="Mozilla/5.0 (Windows NT 10.0; Win64; x64) AppleWebKit/537.36 (KHTML, like Gecko) Chrome/116.0.0.0 Safari/537.36" etag="TbMrwwKotPzayno4H-FH" version="21.7.5" type="github">
  <diagram name="Page-1" id="esTV7xym8zQcMRI_eHIH">
    <mxGraphModel dx="989" dy="523" grid="1" gridSize="10" guides="1" tooltips="1" connect="1" arrows="1" fold="1" page="1" pageScale="1" pageWidth="850" pageHeight="1100" math="0" shadow="0">
      <root>
        <mxCell id="0" />
        <mxCell id="1" parent="0" />
        <mxCell id="GYA_C9YwGoG80Jhkw-GN-1" value="" style="rounded=0;whiteSpace=wrap;html=1;fillColor=#dae8fc;strokeColor=#6c8ebf;" vertex="1" parent="1">
          <mxGeometry x="40" y="160" width="120" height="490" as="geometry" />
        </mxCell>
        <mxCell id="GYA_C9YwGoG80Jhkw-GN-2" value="" style="rounded=0;whiteSpace=wrap;html=1;fillColor=#d5e8d4;strokeColor=#82b366;" vertex="1" parent="1">
          <mxGeometry x="340" y="160" width="120" height="490" as="geometry" />
        </mxCell>
        <mxCell id="GYA_C9YwGoG80Jhkw-GN-53" style="edgeStyle=orthogonalEdgeStyle;rounded=0;orthogonalLoop=1;jettySize=auto;html=1;exitX=-0.015;exitY=0.46;exitDx=0;exitDy=0;entryX=1;entryY=0.75;entryDx=0;entryDy=0;exitPerimeter=0;" edge="1" parent="1" source="GYA_C9YwGoG80Jhkw-GN-3" target="GYA_C9YwGoG80Jhkw-GN-48">
          <mxGeometry relative="1" as="geometry" />
        </mxCell>
        <mxCell id="GYA_C9YwGoG80Jhkw-GN-54" value="Entities" style="edgeLabel;html=1;align=center;verticalAlign=middle;resizable=0;points=[];" vertex="1" connectable="0" parent="GYA_C9YwGoG80Jhkw-GN-53">
          <mxGeometry x="0.0716" y="2" relative="1" as="geometry">
            <mxPoint as="offset" />
          </mxGeometry>
        </mxCell>
        <mxCell id="GYA_C9YwGoG80Jhkw-GN-3" value="DataBase" style="rounded=0;whiteSpace=wrap;html=1;fillColor=#ffe6cc;strokeColor=#d79b00;" vertex="1" parent="1">
          <mxGeometry x="650" y="160" width="120" height="490" as="geometry" />
        </mxCell>
        <mxCell id="GYA_C9YwGoG80Jhkw-GN-9" style="edgeStyle=orthogonalEdgeStyle;rounded=0;orthogonalLoop=1;jettySize=auto;html=1;entryX=0;entryY=0.5;entryDx=0;entryDy=0;" edge="1" parent="1" source="GYA_C9YwGoG80Jhkw-GN-5" target="GYA_C9YwGoG80Jhkw-GN-7">
          <mxGeometry relative="1" as="geometry" />
        </mxCell>
        <mxCell id="GYA_C9YwGoG80Jhkw-GN-11" value="PUT" style="edgeLabel;html=1;align=center;verticalAlign=middle;resizable=0;points=[];" vertex="1" connectable="0" parent="GYA_C9YwGoG80Jhkw-GN-9">
          <mxGeometry x="0.195" y="-3" relative="1" as="geometry">
            <mxPoint x="-18" y="-3" as="offset" />
          </mxGeometry>
        </mxCell>
        <mxCell id="GYA_C9YwGoG80Jhkw-GN-5" value="Sign Up" style="rounded=0;whiteSpace=wrap;html=1;fillColor=#dae8fc;strokeColor=#6c8ebf;" vertex="1" parent="1">
          <mxGeometry x="40" y="160" width="120" height="60" as="geometry" />
        </mxCell>
        <mxCell id="GYA_C9YwGoG80Jhkw-GN-10" style="edgeStyle=orthogonalEdgeStyle;rounded=0;orthogonalLoop=1;jettySize=auto;html=1;entryX=0;entryY=0.5;entryDx=0;entryDy=0;" edge="1" parent="1" source="GYA_C9YwGoG80Jhkw-GN-7">
          <mxGeometry relative="1" as="geometry">
            <mxPoint x="649.9999999999998" y="190" as="targetPoint" />
          </mxGeometry>
        </mxCell>
        <mxCell id="GYA_C9YwGoG80Jhkw-GN-12" value="ORM" style="edgeLabel;html=1;align=center;verticalAlign=middle;resizable=0;points=[];" vertex="1" connectable="0" parent="GYA_C9YwGoG80Jhkw-GN-10">
          <mxGeometry x="0.408" y="-1" relative="1" as="geometry">
            <mxPoint x="-43" y="-1" as="offset" />
          </mxGeometry>
        </mxCell>
        <mxCell id="GYA_C9YwGoG80Jhkw-GN-7" value="UserCreator" style="rounded=0;whiteSpace=wrap;html=1;fillColor=#d5e8d4;strokeColor=#82b366;" vertex="1" parent="1">
          <mxGeometry x="340" y="160" width="120" height="60" as="geometry" />
        </mxCell>
        <mxCell id="GYA_C9YwGoG80Jhkw-GN-20" style="edgeStyle=orthogonalEdgeStyle;rounded=0;orthogonalLoop=1;jettySize=auto;html=1;exitX=1;exitY=0.25;exitDx=0;exitDy=0;entryX=0;entryY=0.25;entryDx=0;entryDy=0;" edge="1" parent="1" source="GYA_C9YwGoG80Jhkw-GN-13" target="GYA_C9YwGoG80Jhkw-GN-15">
          <mxGeometry relative="1" as="geometry" />
        </mxCell>
        <mxCell id="GYA_C9YwGoG80Jhkw-GN-21" value="GET email/pass" style="edgeLabel;html=1;align=center;verticalAlign=middle;resizable=0;points=[];" vertex="1" connectable="0" parent="GYA_C9YwGoG80Jhkw-GN-20">
          <mxGeometry x="0.195" y="-2" relative="1" as="geometry">
            <mxPoint x="-28" as="offset" />
          </mxGeometry>
        </mxCell>
        <mxCell id="GYA_C9YwGoG80Jhkw-GN-13" value="Login" style="rounded=0;whiteSpace=wrap;html=1;fillColor=#dae8fc;strokeColor=#6c8ebf;" vertex="1" parent="1">
          <mxGeometry x="40" y="220" width="120" height="60" as="geometry" />
        </mxCell>
        <mxCell id="GYA_C9YwGoG80Jhkw-GN-26" style="edgeStyle=orthogonalEdgeStyle;rounded=0;orthogonalLoop=1;jettySize=auto;html=1;exitX=0;exitY=0.5;exitDx=0;exitDy=0;entryX=1;entryY=0.5;entryDx=0;entryDy=0;" edge="1" parent="1">
          <mxGeometry relative="1" as="geometry">
            <mxPoint x="340" y="260" as="sourcePoint" />
            <mxPoint x="160" y="260" as="targetPoint" />
            <Array as="points">
              <mxPoint x="300" y="260" />
              <mxPoint x="300" y="260" />
            </Array>
          </mxGeometry>
        </mxCell>
        <mxCell id="GYA_C9YwGoG80Jhkw-GN-27" value="JWT" style="edgeLabel;html=1;align=center;verticalAlign=middle;resizable=0;points=[];" vertex="1" connectable="0" parent="GYA_C9YwGoG80Jhkw-GN-26">
          <mxGeometry x="-0.2103" y="1" relative="1" as="geometry">
            <mxPoint x="-29" y="-1" as="offset" />
          </mxGeometry>
        </mxCell>
        <mxCell id="GYA_C9YwGoG80Jhkw-GN-15" value="AuthService" style="rounded=0;whiteSpace=wrap;html=1;fillColor=#d5e8d4;strokeColor=#82b366;" vertex="1" parent="1">
          <mxGeometry x="340" y="220" width="120" height="60" as="geometry" />
        </mxCell>
        <mxCell id="GYA_C9YwGoG80Jhkw-GN-43" style="edgeStyle=orthogonalEdgeStyle;rounded=0;orthogonalLoop=1;jettySize=auto;html=1;exitX=1;exitY=0.25;exitDx=0;exitDy=0;entryX=0;entryY=0.25;entryDx=0;entryDy=0;" edge="1" parent="1" source="GYA_C9YwGoG80Jhkw-GN-28" target="GYA_C9YwGoG80Jhkw-GN-38">
          <mxGeometry relative="1" as="geometry">
            <Array as="points">
              <mxPoint x="160" y="310" />
              <mxPoint x="340" y="310" />
            </Array>
          </mxGeometry>
        </mxCell>
        <mxCell id="GYA_C9YwGoG80Jhkw-GN-44" value="POST/PUT/DELETE" style="edgeLabel;html=1;align=center;verticalAlign=middle;resizable=0;points=[];" vertex="1" connectable="0" parent="GYA_C9YwGoG80Jhkw-GN-43">
          <mxGeometry x="-0.1881" relative="1" as="geometry">
            <mxPoint as="offset" />
          </mxGeometry>
        </mxCell>
        <mxCell id="GYA_C9YwGoG80Jhkw-GN-28" value="Create/Edit/Delete Index Cards or Notes" style="rounded=0;whiteSpace=wrap;html=1;fillColor=#dae8fc;strokeColor=#6c8ebf;" vertex="1" parent="1">
          <mxGeometry x="40" y="280" width="120" height="60" as="geometry" />
        </mxCell>
        <mxCell id="GYA_C9YwGoG80Jhkw-GN-47" style="edgeStyle=orthogonalEdgeStyle;rounded=0;orthogonalLoop=1;jettySize=auto;html=1;exitX=1;exitY=0.25;exitDx=0;exitDy=0;entryX=0;entryY=0.25;entryDx=0;entryDy=0;" edge="1" parent="1" source="GYA_C9YwGoG80Jhkw-GN-37" target="GYA_C9YwGoG80Jhkw-GN-48">
          <mxGeometry relative="1" as="geometry" />
        </mxCell>
        <mxCell id="GYA_C9YwGoG80Jhkw-GN-49" value="GET" style="edgeLabel;html=1;align=center;verticalAlign=middle;resizable=0;points=[];" vertex="1" connectable="0" parent="GYA_C9YwGoG80Jhkw-GN-47">
          <mxGeometry x="-0.3197" y="2" relative="1" as="geometry">
            <mxPoint x="19" as="offset" />
          </mxGeometry>
        </mxCell>
        <mxCell id="GYA_C9YwGoG80Jhkw-GN-37" value="Search keywords/authors/titles" style="rounded=0;whiteSpace=wrap;html=1;fillColor=#dae8fc;strokeColor=#6c8ebf;" vertex="1" parent="1">
          <mxGeometry x="40" y="340" width="120" height="60" as="geometry" />
        </mxCell>
        <mxCell id="GYA_C9YwGoG80Jhkw-GN-45" style="edgeStyle=orthogonalEdgeStyle;rounded=0;orthogonalLoop=1;jettySize=auto;html=1;exitX=1;exitY=0.25;exitDx=0;exitDy=0;entryX=0.02;entryY=0.275;entryDx=0;entryDy=0;entryPerimeter=0;" edge="1" parent="1" source="GYA_C9YwGoG80Jhkw-GN-38" target="GYA_C9YwGoG80Jhkw-GN-3">
          <mxGeometry relative="1" as="geometry" />
        </mxCell>
        <mxCell id="GYA_C9YwGoG80Jhkw-GN-46" value="INDEX CARD / NOTE" style="edgeLabel;html=1;align=center;verticalAlign=middle;resizable=0;points=[];" vertex="1" connectable="0" parent="GYA_C9YwGoG80Jhkw-GN-45">
          <mxGeometry x="-0.0766" y="-1" relative="1" as="geometry">
            <mxPoint x="-1" as="offset" />
          </mxGeometry>
        </mxCell>
        <mxCell id="GYA_C9YwGoG80Jhkw-GN-38" value="IndexCardService / NoteService" style="rounded=0;whiteSpace=wrap;html=1;fillColor=#d5e8d4;strokeColor=#82b366;" vertex="1" parent="1">
          <mxGeometry x="340" y="280" width="120" height="60" as="geometry" />
        </mxCell>
        <mxCell id="GYA_C9YwGoG80Jhkw-GN-40" value="" style="endArrow=classic;startArrow=classic;html=1;rounded=0;entryX=-0.02;entryY=0.191;entryDx=0;entryDy=0;entryPerimeter=0;exitX=1.005;exitY=0.594;exitDx=0;exitDy=0;exitPerimeter=0;" edge="1" parent="1" source="GYA_C9YwGoG80Jhkw-GN-15" target="GYA_C9YwGoG80Jhkw-GN-3">
          <mxGeometry width="50" height="50" relative="1" as="geometry">
            <mxPoint x="470" y="260" as="sourcePoint" />
            <mxPoint x="520" y="210" as="targetPoint" />
          </mxGeometry>
        </mxCell>
        <mxCell id="GYA_C9YwGoG80Jhkw-GN-41" value="email/pass" style="edgeLabel;html=1;align=center;verticalAlign=middle;resizable=0;points=[];" vertex="1" connectable="0" parent="GYA_C9YwGoG80Jhkw-GN-40">
          <mxGeometry x="-0.0184" relative="1" as="geometry">
            <mxPoint as="offset" />
          </mxGeometry>
        </mxCell>
        <mxCell id="GYA_C9YwGoG80Jhkw-GN-50" style="edgeStyle=orthogonalEdgeStyle;rounded=0;orthogonalLoop=1;jettySize=auto;html=1;exitX=1;exitY=0.25;exitDx=0;exitDy=0;entryX=-0.009;entryY=0.399;entryDx=0;entryDy=0;entryPerimeter=0;" edge="1" parent="1" source="GYA_C9YwGoG80Jhkw-GN-48" target="GYA_C9YwGoG80Jhkw-GN-3">
          <mxGeometry relative="1" as="geometry">
            <Array as="points">
              <mxPoint x="555" y="355" />
            </Array>
          </mxGeometry>
        </mxCell>
        <mxCell id="GYA_C9YwGoG80Jhkw-GN-51" value="KEYWORD/AUTHOR/Titles" style="edgeLabel;html=1;align=center;verticalAlign=middle;resizable=0;points=[];" vertex="1" connectable="0" parent="GYA_C9YwGoG80Jhkw-GN-50">
          <mxGeometry x="-0.3085" y="-3" relative="1" as="geometry">
            <mxPoint x="24" as="offset" />
          </mxGeometry>
        </mxCell>
        <mxCell id="GYA_C9YwGoG80Jhkw-GN-48" value="SearchService" style="rounded=0;whiteSpace=wrap;html=1;fillColor=#d5e8d4;strokeColor=#82b366;" vertex="1" parent="1">
          <mxGeometry x="340" y="340" width="120" height="60" as="geometry" />
        </mxCell>
      </root>
    </mxGraphModel>
  </diagram>
</mxfile>
